<svg width="32" height="32" viewBox="0 0 32 32" xmlns="http://www.w3.org/2000/svg">
  <g fill="none">
    <path d="M0 0h32v32H0z"/>
    <path d="M27.389 19.556V5.333a.278.278 0 0 0-.278-.277c-2.94 0-5.585-.603-7.876-1.749a12.84 12.84 0 0 1-1.957-1.196 6.516 6.516 0 0 1-.637-.53.278.278 0 0 0-.393 0c-.132.132-.36.323-.637.53-.57.427-1.227.831-1.957 1.196-2.291 1.146-4.936 1.749-7.876 1.749a.278.278 0 0 0-.278.277v14.223c0 3.248 1.445 6.089 4.104 8.216 2.089 1.671 4.801 2.728 6.84 2.728 2.04 0 4.752-1.057 6.84-2.728 2.66-2.127 4.105-4.968 4.105-8.216z" stroke="#323639" stroke-width="3"/>
  </g>
</svg>
