<svg width="161" height="24" viewBox="0 0 161 24" xmlns="http://www.w3.org/2000/svg">
  <g fill="none">
    <path opacity=".04" d="M-220-52h1280V76H-220z"/>
    <g fill="#323639">
      <path d="M76.882 6.437c0 3.273-.325 13.419-.325 13.419 0 1.963.65 2.835 2.497 2.835v.873h-7.277v-.873c1.846 0 2.824-.872 2.824-2.835l.652-16.583c-.543-1.31-1.087-1.746-2.498-1.854V.656h5.539l5.865 15.491L90.134.656h4.996v.763c-1.412 0-2.172.655-2.172 2.182l.652 16.037c0 2.4.434 3.054 2.39 3.054v.873h-8.363v-.873c1.628 0 2.39-.545 2.28-3.054 0 0-.327-11.237-.434-13.2l-4.018 11.127a41.648 41.648 0 0 0-1.522 4.8l-1.302.11c-.326-1.2-1.195-3.382-1.195-3.382S78.076 9.6 76.882 6.437zm-6.843 17.236c-.434-.11-.869-.11-1.304-.11-.868 0-2.39.437-4.236.437-7.06 0-12.274-4.255-12.274-12.11 0-6.654 4.888-11.78 12.382-11.78 1.737 0 3.693.327 5.322.981.326-.328.435-.546.76-.872h.652c-.109 1.2-.543 5.127-.543 5.127h-.652c-.434-2.29-1.63-3.819-5.431-3.819-4.562 0-8.69 3.6-8.69 10.255 0 7.528 4.237 10.8 8.907 10.8 3.042 0 4.889-1.745 6.084-3.927l.76.328-1.737 4.69zM49.51 4.91h-.76c-.108-2.072-.76-2.727-2.39-2.727h-3.15V19.31c0 2.836.544 3.381 2.39 3.381v.873h-8.146v-.873c1.847 0 2.39-.545 2.39-3.491V2.182h-3.15c-2.064 0-2.39.545-2.933 2.727H33L33.543 0l.543.11c.217.545.652.545 1.955.545h10.536c1.956 0 2.39 0 2.824-.655h.652l-.544 4.91zM26.437 24c-1.51 0-2.698-.216-3.56-.54-.864-.216-1.511-.541-1.835-.757a5.804 5.804 0 0 0-.755.973l-.648-.216.54-5.08.755.108c.432 2.378 2.05 4.108 5.396 4.108 2.59 0 4.317-2.162 4.317-4.54 0-1.946-.756-2.92-3.346-4.866-.863-.54-1.619-.972-2.266-1.513-2.374-1.513-3.885-3.243-3.885-6.054 0-3.243 2.697-5.405 6.258-5.405 2.05 0 3.346.648 3.777.864l.755-.864.54.108-.54 4.648-.755-.108c0-2.161-1.295-3.135-3.453-3.135-2.05 0-3.561 1.081-3.561 3.135 0 1.838 1.402 3.027 3.021 4.109.863.54 1.51.973 2.157 1.405 3.777 2.702 4.64 4.432 4.64 7.027C33.991 21.19 31.077 24 26.437 24zM14.136 4.973h-.863c0-1.946-.863-2.702-2.59-2.702H5.827v8.54h3.13c1.618 0 1.943-.864 2.158-2.27h.755v6.054h-.755c-.215-1.621-.54-2.27-2.267-2.27h-3.02v7.244c0 2.702.647 3.027 2.374 3.027v.864H0v-.864c2.05 0 2.374-.54 2.374-3.027V3.676c0-1.514-.648-2.163-2.374-2.163V.757h11.222C13.164.757 13.596.65 13.92 0h.756l-.54 4.973zM130.57 6.27v12.973c0 2.81.646 3.351 2.372 3.351v.865h-12.731v-.865c.972 0 1.834-.325 1.834-.973 0-.433-.108-1.19-.325-1.947l-.972-3.135h-7.12c-.11.434-1.403 4-1.403 4.974 0 .864.972 1.081 1.618 1.081v.865h-5.935v-.865c1.079 0 1.943-.108 2.698-2.378l5.503-17.622c-.324-.757-.754-.973-1.51-1.081V.756h4.857l5.825 18.487c.54 1.946 1.08 2.92 1.943 3.351 1.295-.432 1.62-.865 1.62-3.35V3.675c-.972-1.298-1.081-2.163-2.915-2.163V.757h5.504l9.064 15.46V4.432c0-2.379-.538-2.92-2.374-2.92V.757h12.086v.756c-.755 0-1.403.325-1.403 1.082 0 .54.216 1.08.432 1.73l3.453 7.46 3.346-7.244c.538-.973.647-1.513.647-2.054 0-.649-.433-.974-1.402-.974V.757H161v.756c-1.403 0-2.267 1.298-2.913 2.81l-4.425 9.082v5.946c0 2.596.648 3.244 2.375 3.244v.864h-8.202v-.864c1.727 0 2.375-.648 2.375-3.244v-5.08l-4.75-10.055c-.861-1.945-1.186-2.378-1.726-2.703-1.08.433-1.403 1.19-1.403 2.92V21.08s.11 1.298.216 2.81l-1.402.109L130.57 6.27zm-13.49-1.08l-3.022 9.838h6.259l-3.237-9.839z"/>
      <path d="M104.575 15.457h-1.62v4.71c0 2.41.647 2.957 2.485 2.957V24h-8.318v-.876c1.729 0 2.377-.656 2.377-3.067V4.613c0-2.409-.648-2.847-2.377-2.847V1h6.265C109.437 1 113 2.862 113 7.9c0 5.257-4.32 7.557-8.425 7.557zm-1.08-12.925h-.54v11.281h.972c3.566 0 5.402-1.643 5.402-5.805s-1.621-5.476-5.834-5.476zM66.875 19.62c-4.105 0-6.914-2.958-6.914-7.23 0-4.052 2.917-7.228 6.913-7.228 3.89 0 6.806 3.067 6.806 7.229 0 4.052-3.025 7.229-6.806 7.229zm0-13.144c-2.809 0-3.782 2.738-3.782 5.915 0 2.958.865 5.915 3.781 5.915 2.81 0 3.673-2.958 3.673-6.025.001-2.957-1.08-5.805-3.673-5.805zm-47.53 11.83v-.768c1.08 0 1.297-.328 1.297-.656 0-.439-.109-.767-.217-1.095 0 0-.216-.877-.432-1.534H15.78l-.432 1.424c-.107.33-.215.657-.215 1.095 0 .44.432.766 1.08.766v.768H12v-.768c1.08 0 1.512-.328 1.944-1.532l3.241-9.858c-.108-.44-.433-.767-1.08-.767v-.768h3.455c1.18 3.509 2.367 7.014 3.565 10.516.54 1.862 1.08 2.41 1.944 2.41v.767h-5.724zM17.832 7.68l-1.62 5.367h3.348L17.832 7.68z"/>
    </g>
  </g>
</svg>
