<svg width="90" height="21" viewBox="0 0 90 21" xmlns="http://www.w3.org/2000/svg">
  <g fill="none">
    <path opacity=".04" d="M-48-54h1280V74H-48z"/>
    <path d="M12.1 5.1v11.2c0 2.6 2.1 4.7 4.8 4.7 2.6 0 4.7-2.1 4.7-4.7V5.1c0-2.6-2.1-4.7-4.7-4.7-2.7 0-4.8 2.1-4.8 4.7m3.4 11.2V5.1c0-.8.6-1.3 1.4-1.3.7 0 1.3.5 1.3 1.3v11.2c0 .7-.6 1.3-1.3 1.3-.8 0-1.4-.6-1.4-1.3M49 .6h-9.6V4h3.1v16.7h3.4V4H49zm10 0v15.7c0 .7-.6 1.3-1.3 1.3-.7 0-1.3-.6-1.3-1.3V.6h-3.5v15.7c0 2.6 2.2 4.7 4.8 4.7 2.6 0 4.8-2.1 4.8-4.7V.6H59zM90.1 4V.6h-8.4v20.1h8.4v-3.4h-5v-5.2h3.2V8.7h-3.2V4zM36.2 20.7h-3.6l-2.5-9.5s2.2-.4 2.2-2.7V5.4c0-.8-.6-1.4-1.4-1.4h-1.3v16.7h-3.4V.6h4.7c2.6 0 4.7 2 4.8 4.6v3.2c0 2-.7 3.4-1.9 4.4l2.4 7.9zM74.1.6v11L70.6.6h-3.5v20.1h3.5v-9.8l3.2 9.8h3.8V.6zM4.2.9H.6V21h3.6v-8.6h3.3V9H4.2V4.3h5.2V.9z" fill="#323639"/>
  </g>
</svg>
