<svg width="191" height="32" viewBox="0 0 191 32" xmlns="http://www.w3.org/2000/svg">
  <g fill="none" fill-rule="evenodd">
    <path d="M-828-4101H452v5592H-828z"/>
    <g fill-rule="nonzero">
      <g fill="#323639">
        <path d="M174.5 9a1.5 1.5 0 0 1 0-3h9a1.5 1.5 0 0 1 0 3h-9zm13.342 20.83a1.5 1.5 0 0 1-2.684 1.34l-4-8a1.5 1.5 0 0 1 2.684-1.34l4 8zm-25.684 0a1.5 1.5 0 1 0 2.684 1.34l4-8a1.5 1.5 0 0 0-2.684-1.34l-4 8z"/>
        <path d="M176.621 17.497A1.5 1.5 0 0 1 175.5 18h-9a1.5 1.5 0 0 1 0-3h8.326l7.553-8.497c.916-1.03 2.621-.382 2.621.997v9a1.5 1.5 0 0 1-3 0v-5.055l-5.379 6.052z"/>
        <path d="M191 22.5a1.5 1.5 0 0 1-1.5 1.5h-29a1.5 1.5 0 0 1-1.5-1.5v-21a1.5 1.5 0 0 1 1.5-1.5h29a1.5 1.5 0 0 1 1.5 1.5v21zM188 3h-26v18h26V3z"/>
      </g>
      <path d="M81.5 29h28c2 0 2 3 0 3h-28c-2 0-2-3 0-3zm0-5.015a1.5 1.5 0 0 1-1.5-1.5v-10a1.5 1.5 0 0 1 1.5-1.5h6a1.5 1.5 0 0 1 1.5 1.5v10a1.5 1.5 0 0 1-1.5 1.5h-6zm4.5-3v-7h-3v7h3zM92.5 24a1.5 1.5 0 0 1-1.5-1.5v-21A1.5 1.5 0 0 1 92.5 0h6a1.5 1.5 0 0 1 1.5 1.5v21a1.5 1.5 0 0 1-1.5 1.5h-6zm1.5-3h3V3h-3v18zm9.5 3a1.5 1.5 0 0 1-1.5-1.5v-17a1.5 1.5 0 0 1 1.5-1.5h6a1.5 1.5 0 0 1 1.5 1.5v17a1.5 1.5 0 0 1-1.5 1.5h-6zm1.5-3h3V7h-3v14z" fill="#323639"/>
      <path d="M80 0h32v32H80z"/>
      <g fill="#323639">
        <path d="M15 17h10.5a1.5 1.5 0 0 1 1.5 1.5C27 25.956 20.956 32 13.5 32S0 25.956 0 18.5 6.044 5 13.5 5A1.5 1.5 0 0 1 15 6.5V17zM3 18.5C3 24.299 7.701 29 13.5 29c5.29 0 9.666-3.912 10.394-9H13.5a1.5 1.5 0 0 1-1.5-1.5V8.106C6.912 8.834 3 13.21 3 18.5z"/>
        <path d="M18.5 0A1.5 1.5 0 0 0 17 1.5v11a2.5 2.5 0 0 0 2.5 2.5h11a1.5 1.5 0 0 0 1.5-1.5C32 6.044 25.956 0 18.5 0zm10.394 12H20V3.106A10.507 10.507 0 0 1 28.894 12z"/>
      </g>
    </g>
  </g>
</svg>
