<svg width="191" height="32" viewBox="0 0 191 32" xmlns="http://www.w3.org/2000/svg">
  <g fill="none" fill-rule="evenodd">
    <path d="M-544-4101H736v5592H-544z"/>
    <g fill-rule="nonzero">
      <path d="M160 0h32v32h-32z"/>
      <path d="M167.996 17.415a1.5 1.5 0 0 1-.809-2.137l8-14.5c.75-1.357 2.814-.826 2.814.724v11l5.077 2.116a1.5 1.5 0 0 1 .773 2.037l-7 14.5c-.693 1.435-2.85.942-2.85-.653V19.56l-6.005-2.145zm2.67-2.232l5.34 1.907a1.5 1.5 0 0 1 .995 1.412v5.443l3.46-7.167-4.537-1.89a1.5 1.5 0 0 1-.923-1.386V7.326l-4.335 7.857z" fill="#323639"/>
    </g>
    <g fill-rule="nonzero">
      <path d="M80 0h32v32H80z"/>
      <path d="M107.389 19.556V5.333a.278.278 0 0 0-.278-.277c-2.94 0-5.585-.603-7.876-1.749a12.84 12.84 0 0 1-1.957-1.196 6.516 6.516 0 0 1-.637-.53.278.278 0 0 0-.393 0c-.132.132-.36.323-.637.53-.57.427-1.227.831-1.957 1.196-2.291 1.146-4.936 1.749-7.876 1.749a.278.278 0 0 0-.278.277v14.223c0 3.248 1.445 6.089 4.104 8.216 2.089 1.671 4.801 2.728 6.84 2.728 2.04 0 4.752-1.057 6.84-2.728 2.66-2.127 4.105-4.968 4.105-8.216z" stroke="#323639" stroke-width="3"/>
    </g>
    <g fill="#323639">
      <path d="M16 29c7.18 0 13-5.82 13-13S23.18 3 16 3 3 8.82 3 16s5.82 13 13 13zm0 3C7.163 32 0 24.837 0 16S7.163 0 16 0s16 7.163 16 16-7.163 16-16 16z" fill-rule="nonzero"/>
      <path d="M22.008 18.911c.411-.836 1.373-1.154 2.148-.71.774.443 1.07 1.48.659 2.317C23.039 24.13 20.1 26 16.225 26c-3.84 0-6.89-1.826-8.977-5.365-.47-.799-.252-1.858.488-2.367.74-.508 1.721-.272 2.192.526 1.507 2.556 3.548 3.778 6.297 3.778 2.711 0 4.564-1.179 5.783-3.66z" fill-rule="nonzero"/>
      <path d="M20.5 15a2.5 2.5 0 1 1 0-5 2.5 2.5 0 0 1 0 5zm-9 0a2.5 2.5 0 1 1 0-5 2.5 2.5 0 0 1 0 5z"/>
    </g>
  </g>
</svg>
