<svg width="256" height="29" viewBox="0 0 256 29" xmlns="http://www.w3.org/2000/svg">
  <g fill="none" fill-rule="evenodd">
    <path opacity=".04" d="M-976-50H304V78H-976z"/>
    <g fill="#29293A">
      <path d="M78.138 10.787c-.337-.899-1.26-1.883-2.362-2.16-.945-.28-2.048.063-2.88.748-1.89 1.733-1.868 4.3-1.125 6.524l6.367-5.112zm2.34-.086l-8.1 6.653c.698 1.754 3.578 3.508 6.435.363l1.08 1.113c-1.687 1.946-4.77 2.503-7.335 1.99-2.317-.472-4.185-2.546-4.815-4.642-.787-2.632-.112-5.37 2.093-7.081 1.912-1.605 6.773-3.53 10.643 1.604zm77.266.086c-.337-.899-1.26-1.883-2.362-2.16-.945-.28-2.047.063-2.88.748-1.89 1.733-1.868 4.3-1.125 6.524l6.367-5.112zm2.34-.086l-8.1 6.653c.698 1.754 3.578 3.508 6.435.363l1.08 1.113c-1.687 1.946-4.77 2.503-7.335 1.99-2.317-.472-4.185-2.546-4.815-4.642-.787-2.632-.112-5.37 2.093-7.081 1.913-1.605 6.795-3.53 10.643 1.604zm28.599.086c-.338-.899-1.26-1.883-2.363-2.16-.945-.28-2.048.063-2.88.748-1.89 1.733-1.868 4.3-1.125 6.524l6.368-5.112zM191 10.7l-8.1 6.653c.697 1.754 3.578 3.508 6.435.363l1.08 1.113c-1.687 1.946-4.77 2.503-7.335 1.99-2.318-.472-4.185-2.546-4.815-4.642-.788-2.632-.112-5.37 2.092-7.081 1.935-1.605 6.795-3.53 10.643 1.604zm-73.62-1.86c-.046.063-1.058 1.368-1.058 1.368-1.733-1.284-4.546-2.225-6.593-1.326-1.53.727-1.238 2.374.945 2.93 1.418.428 6.097.813 6.615 4.15.18 1.37-.495 2.589-1.643 3.444-2.655 1.926-6.862 1.477-9.787.514-.023-.043.675-2.204.675-2.204.922.578 1.71.856 2.61 1.177 4.5 1.54 7.088-1.07 4.275-2.61-1.238-.706-2.858-.77-4.433-1.369-1.17-.45-2.385-1.305-2.767-2.545-.383-1.284-.113-2.781.72-3.573 2.7-2.395 7.515-1.476 10.44.043zM22 4.732C22 3.77 22.81 3 23.822 3c1.013 0 1.823.77 1.823 1.733 0 .963-.81 1.732-1.823 1.732C22.81 6.445 22 5.675 22 4.733z"/>
      <path d="M168.81 20.296c2.78.113 5.963-.45 8.541-1.038-.112.204-.897 2.077-.897 2.077h-12.71l8.788-20.07c-.92 0-2.735.022-2.735.022-3.475 0-4.64.451-7.756 2.37L162.265 0h15.153l-8.607 20.296zm-33.423-14.99v5.576c2.063-1.874 5-3.838 7.756-2.438 1.816 1.151 1.57 3.228 1.525 5.441-.067 3.544-.27 7.427-.27 7.427h-3.474c.112-4.582.135-7.969-.112-9.414-.135-.677-.291-1.377-1.03-1.716-1.66-.655-3.23.903-4.35 2.123v8.985h-3.923V6.344h-1.435V5.306h5.313zm67.72 3.59l.225 12.44h-3.9l.179-12.44h-2.443v-1.04h2.443v-.564s.942-.361 1.748-.745c1.121-.52 1.749-.993 1.749-.993v2.28h7.779s-.875 8.715.134 11.221c.247.632.83.903 1.524.745 1.323-.361 2.601-1.242 3.699-2.19V8.895h-2.062V7.857h5.963v13.478h-3.923v-2.077c-.673.34-6.12 3.951-8.205 1.784-1.233-1.377-1.277-3.906-1.344-6.118-.045-2.033.335-4.11.515-6.051h-4.08v.022zM24.694 7.855s-.874 8.716.135 11.222c.246.632.83.903 1.524.745 1.323-.361 2.6-1.242 3.699-2.19V8.895h-2.063V7.857h5.964v13.478H30.03v-2.077c-.672.34-6.12 3.951-8.204 1.784-1.234-1.377-1.278-3.906-1.346-6.118-.045-2.033.337-4.11.516-6.051H19V7.834l5.694.023zm61.086 0s-.874 8.716.134 11.222c.247.632.83.903 1.524.745 1.323-.361 2.601-1.242 3.7-2.19V8.895h-2.063V7.857h5.963v13.478h-3.923v-2.077c-.673.34-6.12 3.951-8.205 1.784-1.232-1.377-1.277-3.906-1.344-6.118-.045-2.033.336-4.11.515-6.051h-1.995V7.834l5.694.023zm-55.907-2.89a1.815 1.815 0 1 1 3.631 0 1.814 1.814 0 0 1-1.815 1.83c-1.01-.023-1.816-.835-1.816-1.83zm165.995 2.89v13.48h-3.9V8.895h-1.973v-1.04h5.873zm-3.788-2.89a1.815 1.815 0 1 1 3.631 0 1.814 1.814 0 0 1-1.815 1.83c-1.009-.023-1.816-.835-1.816-1.83zm-89.488 2.89h2.735v1.04h-2.735l.224 12.44h-3.9l.18-12.44H96.36v-1.04h2.734v-.564s.942-.361 1.749-.745c1.121-.52 1.748-.993 1.748-.993v2.303zm26.81 1.74l-.784 1.15c-1.076-1.534-3.273-2.032-4.505-1.354-2.467 1.445-2.467 4.831-2.018 7.518.314 1.513 1.3 3.32 2.937 3.59 1.277.18 2.645-.745 3.16-1.22l1.278 1.423s-.762.587-1.637.835c-2.488.881-5.402.52-7.307-1.241-2.04-1.897-2.78-4.38-2.287-7.045.404-2.28 2.533-4.424 4.73-5.034 2.175-.587 4.797-.113 6.434 1.377zm-83.434 5.17s-.18 5.305-3.16 5.305c-2.982 0-2.87-5.328-2.87-5.328s.045-5.012 3.16-5.012c3.094 0 2.87 5.034 2.87 5.034zm-1.48-9.46v1.038h1.323v3.544s-2.623-3.025-6.59-.925c-2.377 1.423-3.363 3.974-3.094 6.593.179 2.348 1.345 4.763 3.631 5.712 2.13.79 4.506.067 6.03-1.446v1.536h3.632V5.328h-4.931v-.023zm16.835 9.46s-.18 5.305-3.16 5.305c-2.982 0-2.87-5.328-2.87-5.328s.045-5.012 3.16-5.012c3.094 0 2.87 5.034 2.87 5.034zm-1.502-9.46v1.038h1.323v3.544s-2.623-3.025-6.59-.925c-2.377 1.423-3.363 3.974-3.094 6.593.179 2.348 1.345 4.763 3.631 5.712 2.13.79 4.506.067 6.03-1.446v1.536h3.61V5.328h-4.91v-.023zm177.16 8.376c.022 2.393.045 4.696-.045 7.63h-3.833c.246-3.115 1.255-10.407-1.345-10.972-1.66-.36-3.183.903-4.35 2.19v8.783h-3.788V8.895h-1.502V7.857h5.269v3.138c1.815-1.739 4.236-3.635 6.77-3.116.762.159 2.757.723 2.824 5.803z"/>
      <path d="M18.25 3.003l1.37-1.13.629.576-3.143 2.636c-3.031-2.281-7.004-4.319-11-3.211-1.033.332-2.425 1.218-2.47 2.502-.044 2.303 4.557 3.476 4.557 3.476s6.174 1.86 8.71 4.208c1.168 1.041 1.55 2.724 1.235 4.385-1.93 8.17-13.356 4.207-16.095 1.993L.628 19.855 0 19.3l3.187-3.189c2.537 1.86 3.098 2.193 5.433 3.167 6.039 2.236 8.014-1.218 6.353-3.41-2.806-3.256-7.588-2.702-10.977-5.027C2.2 9.58.92 7.72 1.235 5.484c.201-2.127 2.424-4.031 4.332-4.74C9.9-.939 14.771.412 18.251 3.003M246.684 20.74c-2.043 0-3.681-2.569-3.681-5.758 0-3.166 1.66-5.757 3.681-5.757 2.043 0 3.682 2.568 3.682 5.757 0 3.189-1.64 5.758-3.682 5.758M256 9.978c0-.974-.808-1.771-1.796-1.771-.74 0-1.391.443-1.66 1.085 0 0-.225.531-.18 1.063-.09-.155-.495-.532-.741-.73-2.245-1.905-5.95-2.17-8.53-.887-2.784 1.418-4.221 4.274-3.817 7.33.247 2.569 2.582 4.96 4.939 5.758-.404.177-1.594.443-1.662 1.815-.045 2.348 3.75 1.108 5.612 1.75.472.243.72.708.63 1.262-.135.443-.54.775-.966.908-1.75.576-3.57-.377-4.826-1.55l-1.348 1.04c.809.643 1.617 1.24 2.515 1.55 1.549.577 5.14.842 6.801-1.46.36-.466.495-1.462.158-2.06-1.235-2.037-4.063-1.085-5.725-1.307-.92-.11-1.57-1.461 1.774-1.727 2.537-.11 4.871-1.572 6.196-3.809 1.1-1.904.785-4.716-.045-6.577.404.09.696.133.943.09.967-.044 1.729-.824 1.728-1.773"/>
    </g>
  </g>
</svg>
