<svg width="118" height="23" viewBox="0 0 118 23" xmlns="http://www.w3.org/2000/svg">
  <g fill="none">
    <path opacity=".04" d="M-462-53H818V75H-462z"/>
    <path d="M41.025 16.793v2.647h-11.25v-2.647h4.04V6.207h-4.04V3.56h11.25v2.647h-4.04v10.586h4.04zM21.92 3.56h-3.104l-2.23 12.572h-.033L13.966 4.474c-.162-.788-.42-.977-1.196-.977h-1.714c-.743 0-1.034.19-1.196.977L7.274 16.132h-.065L5.011 3.56h-3.33l3.2 15.092c.13.662.389.82 1.132.82h2.199c.743 0 1.002-.158 1.131-.851l2.425-10.933h.064l2.425 10.933c.162.693.388.85 1.131.85h2.167c.775 0 1.002-.157 1.131-.819L21.919 3.56zM23.6 23H0V0h23.6v23zm38.924-7.625a32.5 32.5 0 0 0 .29 4.065h3.234c-.097-.851-.194-2.269-.259-4.285-.065-2.017-.84-2.71-2.522-3.025v-.063c1.875-.283 2.684-1.166 2.684-3.97 0-2.331-.388-3.182-1.035-3.812-.646-.63-1.325-.693-2.586-.693h-9.925V19.44h3.362v-6.176h4.655c.97 0 1.358.063 1.617.315.259.253.453.536.485 1.796zm-6.757-4.694V6.27h5.334c.744 0 .97.063 1.1.189.129.126.452.567.452 1.953 0 1.387-.226 1.828-.485 2.048-.258.22-.355.22-1.099.22h-5.302zM70.8 23H47.2V0h23.6v23zM99.605 3.56v15.88h8.017c2.296 0 3.557-.315 4.559-1.166 1.002-.85 1.713-2.836 1.713-6.742 0-3.907-.55-5.766-1.713-6.743-1.164-.977-2.23-1.166-4.559-1.166h-8.017V3.56zm10.96 7.94c0 3.403-.292 4.285-.906 4.758-.614.472-1.067.472-2.263.472h-4.429V6.27h4.43c1.228 0 1.745.063 2.262.472.517.41.905 1.355.905 4.79V11.5zM118 23H94.4V0H118v23zM75.132 6.207V3.56h13.87v5.104h-2.91V6.207h-5.626v3.78h4.462v2.553h-4.462v4.253h5.755v-2.772h2.942v5.419h-14.03v-2.647h2.197V6.207h-2.198z" fill="#323639"/>
  </g>
</svg>
